<svg xmlns="http://www.w3.org/2000/svg" width="250.004" height="30.427" viewBox="0 0 250.004 30.427">
  <g id="AcreWatch-Logo-1" transform="translate(0.32 -0.47)">
    <path id="Path_1" data-name="Path 1" d="M666.9,110.248l-1.046-4.184H655.392l-2.092,4.184h-5.23l9.413-23.01h6.276l9.413,23.01Zm-6.276-16.735-3.138,7.321h6.276Z" transform="translate(-583.836 -82.575)" fill="#fff"/>
    <path id="Path_2" data-name="Path 2" d="M707.6,107.184l5.23,1.046c-.876,4.181-3.98,7.321-8.367,7.321-5.263,0-10.459-3.837-10.459-9.413s5.2-9.413,10.459-9.413c4.281,0,7.385,2.14,8.367,6.275l-5.23,1.046c-.491-2.138-1.346-3.138-3.138-3.138-2.528,0-4.184,2.662-4.184,5.23a3.911,3.911,0,0,0,4.184,4.184C706.259,110.338,707.007,109.327,707.6,107.184Z" transform="translate(-604.773 -86.832)" fill="#fff"/>
    <path id="Path_3" data-name="Path 3" d="M745.624,96.964v6.275h-1.046c-3.907,0-6.276,1.715-6.276,6.276v5.23h-5.23V96.964h5.23V100.1c1.278-2.082,3.373-3.138,6.276-3.138A3.39,3.39,0,0,1,745.624,96.964Z" transform="translate(-621.957 -87.072)" fill="#fff"/>
    <path id="Path_4" data-name="Path 4" d="M778.247,107.212h-13.6a4.06,4.06,0,0,0,4.184,3.138c1.295,0,2.172-.367,3.138-2.092l5.23,1.046c-1.5,3.723-4.315,6.275-8.367,6.275a9.413,9.413,0,1,1,0-18.827,9.26,9.26,0,0,1,9.413,9.413Zm-13.6-3.138h7.321c-.351-1.665-1.437-3.188-3.138-3.138A4.831,4.831,0,0,0,764.65,104.074Z" transform="translate(-633.739 -86.86)" fill="#fff"/>
    <path id="Path_5" data-name="Path 5" d="M818.951,110.248h-6.276l-4.184-14.643-4.184,14.643h-5.23l-7.321-23.01h6.275l4.184,14.643L806.4,87.238h5.23l4.184,14.643L820,87.238h5.23Z" transform="translate(-648.415 -82.575)" fill="#fff"/>
    <path id="Path_6" data-name="Path 6" d="M868.211,103V114.51h-5.23v-1.046a7.99,7.99,0,0,1-5.23,2.092,6.008,6.008,0,0,1-6.276-6.276c0-3.472,2.622-5.23,7.321-5.23h4.184V103a1.627,1.627,0,0,0-.5-1.495,1.872,1.872,0,0,0-1.591-.6c-1.675,0-2.859.529-3.138,2.092l-5.23-1.046c.77-3.4,3.113-5.23,7.321-5.23C864.828,96.735,868.211,98.539,868.211,103Zm-5.23,4.184H858.8a1.984,1.984,0,0,0-2.092,2.092,1.945,1.945,0,0,0,2.092,2.092A4.721,4.721,0,0,0,862.981,107.188Z" transform="translate(-674.762 -86.837)" fill="#fff"/>
    <path id="Path_7" data-name="Path 7" d="M900.529,109.212c-1.459.849-3.541,2.092-5.23,2.092-4.387,0-6.276-2.694-6.276-7.321V97.707h-3.138v-5.23h3.138v-5.23h5.23v5.23h5.23v5.23h-5.23v5.23c0,1.825.618,3.138,2.092,3.138a8.9,8.9,0,0,0,3.138-1.046Z" transform="translate(-690.42 -82.585)" fill="#fff"/>
    <path id="Path_8" data-name="Path 8" d="M927.546,107.212l5.23,1.046a9.72,9.72,0,0,1-9.413,7.321,9.413,9.413,0,1,1,0-18.826c4.281,0,8.431,2.14,9.413,6.275l-5.23,1.046a4.124,4.124,0,0,0-4.184-3.138c-2.528,0-4.184,2.662-4.184,5.23a3.908,3.908,0,0,0,4.184,4.184A4.231,4.231,0,0,0,927.546,107.212Z" transform="translate(-702.965 -86.86)" fill="#fff"/>
    <path id="Path_9" data-name="Path 9" d="M969.3,99.8v10.459h-5.23v-9.413a2.9,2.9,0,0,0-3.138-3.138c-2.177,0-4.184.773-4.184,4.184v8.367h-5.23V87.248h5.23v7.321a6.756,6.756,0,0,1,5.23-2.092A7.09,7.09,0,0,1,969.3,99.8Z" transform="translate(-719.614 -82.585)" fill="#fff"/>
    <path id="Path_10" data-name="Path 10" d="M580.072,100.659l8.367-12.551-2.092-1.046c-2.622-1.546-5.295-3.134-8.367-3.138-3.857,0-7.914,2.994-10.459,5.23a8.053,8.053,0,0,1,1.046-6.275c1.185-1.695,3.115-2.218,5.23-2.092h1.046c.5,0,1.359-.664,1.046-1.046-1.11-1.137-3.611-1.06-5.23-1.046-.587,0-.472-.121-1.046,0a6.734,6.734,0,0,0-4.184-1.046c-6.737.3-10,6.46-10.459,7.321-.184.366-.964,2.142-2.092,4.184-2.59-2.354-5.433-5.23-9.413-5.23-3.073,0-6.791,1.592-9.413,3.138l-2.092,1.046s6.9,10.942,9.413,14.643c1.362,1.952,4,3.33,6.276,4.184h0a10.393,10.393,0,0,0,4.184,1.046A10.728,10.728,0,0,0,560.2,103.8h0a10.728,10.728,0,0,0,8.367,4.184,16.849,16.849,0,0,0,3.138,0C576.109,106.99,578.537,103.089,580.072,100.659Zm-9.413-8.367a11.809,11.809,0,0,1,7.321-3.138c1.5,0,2.781-.526,4.184,0l-7.321,11.505-4.184-7.321C570.346,92.747,570.154,92.743,570.659,92.292Zm-25.1,8.367-7.321-11.505c1.4-.526,3.725,0,5.23,0,2.54,0,4.327,1.366,6.276,3.138.509.456.324.453,0,1.046Zm23.01,3.138c-1.864,0-3.823-1.716-5.23-3.138h0a5.23,5.23,0,0,0-6.276,0h0c-1.418,1.427-3.376,3.138-5.23,3.138-.882,0-1.256.275-2.092,0l8.367-15.689,2.092-3.138c1.044-1.616,3.016-4.954,6.276-4.184a9.907,9.907,0,0,0-2.092,10.459h0l1.046,1.046,5.229,11.505C569.83,104.1,569.455,103.824,568.567,103.8Z" transform="translate(-532.28 -77.17)" fill="#d8b361"/>
  </g>
</svg>
