<svg xmlns="http://www.w3.org/2000/svg" width="41.773" height="48" viewBox="0 0 41.773 48">
  <g id="peace-of-mind" transform="translate(-33.189 0)">
    <path id="XMLID_646_" d="M60.254,48H39.638a.938.938,0,0,1-.937-.937V41.141a31.792,31.792,0,0,0-3.508-14.455A18.332,18.332,0,0,1,51.387,0h.149A18.372,18.372,0,0,1,69.892,18.346a8.451,8.451,0,0,0,.983,3.955l3.763,6.02A2.5,2.5,0,0,1,72.5,32.059l-2.6.042v3.767a4.606,4.606,0,0,1-4.6,4.6h-4.1v6.593A.938.938,0,0,1,60.254,48ZM40.575,46.125H59.316V39.532a.938.938,0,0,1,.938-.937h5.041a2.729,2.729,0,0,0,2.726-2.726v-4.69a.937.937,0,0,1,.923-.937l3.525-.056A.624.624,0,0,0,73,29.871a.615.615,0,0,0,.013-.61l-3.764-6.023a10.369,10.369,0,0,1-1.235-4.892A16.5,16.5,0,0,0,51.536,1.875H51.4a16.473,16.473,0,0,0-14.54,23.955,33.673,33.673,0,0,1,3.714,15.31Z" transform="translate(0)" fill="#052432"/>
    <g id="XMLID_635_" transform="translate(37.138 4.707)">
      <path id="XMLID_641_" d="M-6.463-10c2.322,0,3.537,3.857,3.537,7.668S-4.141,5.336-6.463,5.336-10,1.478-10-2.332-8.785-10-6.463-10Zm0,13.461c.482,0,1.662-2.03,1.662-5.793S-5.98-8.125-6.463-8.125s-1.662,2.03-1.662,5.793S-6.945,3.461-6.463,3.461Z" transform="translate(20.861 10)" fill="#052432"/>
      <path id="XMLID_642_" d="M225.79,102.957a.938.938,0,0,1-.706-1.554,8.394,8.394,0,0,0,1.8-5.114.937.937,0,0,1,.247-.6q.174-.189.358-.374a10.208,10.208,0,0,1,6.868-3.209c.155,0,.309.005.46.016a.937.937,0,0,1,.867.867,9.852,9.852,0,0,1-3.193,7.328q-.184.184-.374.358a.938.938,0,0,1-.6.247,8.393,8.393,0,0,0-5.114,1.8A.935.935,0,0,1,225.79,102.957Zm2.947-6.235a11.7,11.7,0,0,1-.578,2.928,11.7,11.7,0,0,1,2.928-.578l.078-.077a8.762,8.762,0,0,0,2.63-4.98,8.718,8.718,0,0,0-4.98,2.629Z" transform="translate(-210.832 -88.181)" fill="#052432"/>
      <path id="XMLID_640_" d="M-2.332-10c3.81,0,7.668,1.215,7.668,3.537S1.478-2.926-2.332-2.926-10-4.141-10-6.463-6.143-10-2.332-10Zm0,5.2c3.763,0,5.793-1.18,5.793-1.662S1.431-8.125-2.332-8.125s-5.793,1.18-5.793,1.662S-6.095-4.8-2.332-4.8Z" transform="translate(23.461 20.861)" fill="#052432"/>
      <path id="XMLID_644_" d="M127.119,102.957a.935.935,0,0,1-.616-.231,8.394,8.394,0,0,0-5.114-1.8.937.937,0,0,1-.6-.247q-.189-.174-.374-.358a9.852,9.852,0,0,1-3.193-7.328.937.937,0,0,1,.867-.867q.227-.016.46-.016a10.208,10.208,0,0,1,6.868,3.209q.184.184.358.374a.938.938,0,0,1,.247.6,8.393,8.393,0,0,0,1.8,5.114.938.938,0,0,1-.706,1.554Zm-5.3-3.885a11.7,11.7,0,0,1,2.928.578,11.7,11.7,0,0,1-.578-2.928l-.077-.078a8.718,8.718,0,0,0-4.98-2.629,8.762,8.762,0,0,0,2.63,4.98Z" transform="translate(-113.279 -88.181)" fill="#052432"/>
      <path id="XMLID_637_" d="M-2.332-10c3.81,0,7.668,1.215,7.668,3.537S1.478-2.926-2.332-2.926-10-4.141-10-6.463-6.143-10-2.332-10Zm0,5.2c3.763,0,5.793-1.18,5.793-1.662S1.431-8.125-2.332-8.125s-5.793,1.18-5.793,1.662S-6.095-4.8-2.332-4.8Z" transform="translate(10 20.861)" fill="#052432"/>
    </g>
  </g>
</svg>
