<svg xmlns="http://www.w3.org/2000/svg" width="48" height="48" viewBox="0 0 48 48">
  <g id="Value" transform="translate(-4.001 -4)">
    <path id="Union_39" data-name="Union 39" d="M.858,48A.856.856,0,0,1,0,47.143V30a.856.856,0,0,1,.857-.858H7.713A.857.857,0,0,1,8.57,30v.326a13.967,13.967,0,0,1,6-1.184,14.5,14.5,0,0,1,7.1,1.715h4.9a5.975,5.975,0,0,1,3.575,1.184l9.991-7.993a5.2,5.2,0,0,1,6.934.381,3.205,3.205,0,0,1,.165,4.336L34.411,43.614a7.7,7.7,0,0,1-5.835,2.671H8.57v.857A.857.857,0,0,1,7.713,48Zm.854-1.715H6.858V31.755a.667.667,0,0,1,0-.088v-.81H1.713Zm26.863-1.716a5.987,5.987,0,0,0,4.537-2.078L45.938,27.647a1.47,1.47,0,0,0-.076-2.005,3.551,3.551,0,0,0-4.652-.256l-9.841,7.873a5.979,5.979,0,0,1,1.2,3.6A2.57,2.57,0,0,1,30,39.427H19.713a.858.858,0,0,1,0-1.715H30a.855.855,0,0,0,.854-.854,4.272,4.272,0,0,0-1.243-3.018.889.889,0,0,1-.15-.144,4.277,4.277,0,0,0-2.892-1.126H21.429a.85.85,0,0,1-.477-.144,12.535,12.535,0,0,0-6.382-1.568,12.377,12.377,0,0,0-6,1.364V44.569ZM12,12A12,12,0,1,1,24,24,12,12,0,0,1,12,12Zm1.712,0A10.286,10.286,0,1,0,24,1.712,10.287,10.287,0,0,0,13.713,12Zm9.146,5.713v-.2a3.435,3.435,0,0,1-2.289-3.231,1.145,1.145,0,1,1,2.289,0A1.142,1.142,0,1,0,24,13.141a3.428,3.428,0,0,1-1.142-6.662V6.287a1.142,1.142,0,1,1,2.283,0v.192a3.429,3.429,0,0,1,2.286,3.232,1.143,1.143,0,1,1-2.286,0A1.142,1.142,0,1,0,24,10.855a3.429,3.429,0,0,1,1.142,6.662v.2a1.142,1.142,0,0,1-2.283,0Z" transform="translate(4 4)" fill="#052432"/>
  </g>
</svg>
